<mxfile host="65bd71144e">
    <diagram id="VtykbP9DyzD_j_v1CViL" name="Page-1">
        <mxGraphModel dx="1060" dy="724" grid="1" gridSize="10" guides="1" tooltips="1" connect="1" arrows="1" fold="1" page="1" pageScale="1" pageWidth="850" pageHeight="1100" math="0" shadow="0">
            <root>
                <mxCell id="0"/>
                <mxCell id="1" parent="0"/>
                <mxCell id="73" value="" style="rounded=0;whiteSpace=wrap;html=1;" vertex="1" parent="1">
                    <mxGeometry x="120" y="10" width="940" height="490" as="geometry"/>
                </mxCell>
                <mxCell id="2" value="MaintanenceEvent" style="ellipse;whiteSpace=wrap;html=1;" parent="1" vertex="1">
                    <mxGeometry x="340" y="580" width="120" height="80" as="geometry"/>
                </mxCell>
                <mxCell id="3" value="ShipLocation" style="ellipse;whiteSpace=wrap;html=1;" parent="1" vertex="1">
                    <mxGeometry x="580" y="600" width="120" height="80" as="geometry"/>
                </mxCell>
                <mxCell id="4" value="Event" style="ellipse;whiteSpace=wrap;html=1;" parent="1" vertex="1">
                    <mxGeometry x="130" y="590" width="120" height="80" as="geometry"/>
                </mxCell>
                <mxCell id="5" value="System Equipment" style="ellipse;whiteSpace=wrap;html=1;" parent="1" vertex="1">
                    <mxGeometry x="520" y="280" width="120" height="80" as="geometry"/>
                </mxCell>
                <mxCell id="7" value="&quot;Allowance Parts List&quot;" style="ellipse;whiteSpace=wrap;html=1;" parent="1" vertex="1">
                    <mxGeometry x="270" y="330" width="130" height="80" as="geometry"/>
                </mxCell>
                <mxCell id="8" value="" style="endArrow=block;html=1;fontColor=#000099;exitX=-0.008;exitY=0.413;exitDx=0;exitDy=0;endFill=0;entryX=1;entryY=0.5;entryDx=0;entryDy=0;endSize=8;arcSize=0;exitPerimeter=0;" parent="1" source="2" target="4" edge="1">
                    <mxGeometry width="50" height="50" relative="1" as="geometry">
                        <mxPoint x="45" y="490" as="sourcePoint"/>
                        <mxPoint x="202.9999999999893" y="490" as="targetPoint"/>
                    </mxGeometry>
                </mxCell>
                <mxCell id="11" value="Situation type (ex. Defect Situation)" style="ellipse;whiteSpace=wrap;html=1;" parent="1" vertex="1">
                    <mxGeometry x="390" y="780" width="120" height="80" as="geometry"/>
                </mxCell>
                <mxCell id="12" value="" style="endArrow=block;html=1;fontColor=#000099;exitX=0.5;exitY=0;exitDx=0;exitDy=0;endFill=0;entryX=0.5;entryY=1;entryDx=0;entryDy=0;endSize=8;arcSize=0;" parent="1" source="11" target="2" edge="1">
                    <mxGeometry width="50" height="50" relative="1" as="geometry">
                        <mxPoint x="339.03999999999996" y="653.04" as="sourcePoint"/>
                        <mxPoint x="240" y="640" as="targetPoint"/>
                    </mxGeometry>
                </mxCell>
                <mxCell id="13" value="" style="endArrow=classic;html=1;exitX=1;exitY=0.5;exitDx=0;exitDy=0;endSize=8;arcSize=0;entryX=0;entryY=0.5;entryDx=0;entryDy=0;" parent="1" source="2" target="3" edge="1">
                    <mxGeometry width="50" height="50" relative="1" as="geometry">
                        <mxPoint x="460" y="620" as="sourcePoint"/>
                        <mxPoint x="590" y="640" as="targetPoint"/>
                    </mxGeometry>
                </mxCell>
                <mxCell id="14" value="hasLocation" style="text;html=1;align=center;verticalAlign=middle;resizable=0;points=[];labelBackgroundColor=#ffffff;" parent="13" vertex="1" connectable="0">
                    <mxGeometry x="-0.1269" relative="1" as="geometry">
                        <mxPoint as="offset"/>
                    </mxGeometry>
                </mxCell>
                <mxCell id="15" value="" style="endArrow=classic;html=1;exitX=0.5;exitY=1;exitDx=0;exitDy=0;entryX=0.5;entryY=0;entryDx=0;entryDy=0;endSize=8;arcSize=0;" parent="1" source="3" target="17" edge="1">
                    <mxGeometry width="50" height="50" relative="1" as="geometry">
                        <mxPoint x="500" y="750" as="sourcePoint"/>
                        <mxPoint x="697" y="750" as="targetPoint"/>
                    </mxGeometry>
                </mxCell>
                <mxCell id="16" value="&lt;div&gt;hasCode&lt;br&gt;&lt;/div&gt;" style="text;html=1;align=center;verticalAlign=middle;resizable=0;points=[];labelBackgroundColor=#ffffff;" parent="15" vertex="1" connectable="0">
                    <mxGeometry x="-0.1269" relative="1" as="geometry">
                        <mxPoint as="offset"/>
                    </mxGeometry>
                </mxCell>
                <mxCell id="17" value="&quot;xx-xx-xx-xx&quot;" style="ellipse;whiteSpace=wrap;html=1;" parent="1" vertex="1">
                    <mxGeometry x="590" y="750" width="120" height="80" as="geometry"/>
                </mxCell>
                <mxCell id="18" value="" style="endArrow=classic;html=1;exitX=1;exitY=0.5;exitDx=0;exitDy=0;endSize=8;arcSize=0;entryX=0;entryY=0.5;entryDx=0;entryDy=0;" parent="1" source="17" target="26" edge="1">
                    <mxGeometry width="50" height="50" relative="1" as="geometry">
                        <mxPoint x="760" y="710" as="sourcePoint"/>
                        <mxPoint x="840" y="730" as="targetPoint"/>
                    </mxGeometry>
                </mxCell>
                <mxCell id="19" value="hasCompartment" style="text;html=1;align=center;verticalAlign=middle;resizable=0;points=[];labelBackgroundColor=#ffffff;" parent="18" vertex="1" connectable="0">
                    <mxGeometry x="-0.1269" relative="1" as="geometry">
                        <mxPoint as="offset"/>
                    </mxGeometry>
                </mxCell>
                <mxCell id="20" value="hasDeck" style="endArrow=classic;html=1;exitX=1;exitY=1;exitDx=0;exitDy=0;endSize=8;arcSize=0;entryX=0;entryY=0.5;entryDx=0;entryDy=0;" parent="1" source="17" target="27" edge="1">
                    <mxGeometry width="50" height="50" relative="1" as="geometry">
                        <mxPoint x="720" y="800" as="sourcePoint"/>
                        <mxPoint x="870" y="910" as="targetPoint"/>
                    </mxGeometry>
                </mxCell>
                <mxCell id="22" value="" style="endArrow=classic;html=1;exitX=0;exitY=1;exitDx=0;exitDy=0;endSize=8;arcSize=0;entryX=0.667;entryY=0.025;entryDx=0;entryDy=0;entryPerimeter=0;" parent="1" source="17" target="29" edge="1">
                    <mxGeometry width="50" height="50" relative="1" as="geometry">
                        <mxPoint x="730" y="810" as="sourcePoint"/>
                        <mxPoint x="570" y="850" as="targetPoint"/>
                    </mxGeometry>
                </mxCell>
                <mxCell id="23" value="&lt;div&gt;hasFrame&lt;br&gt;&lt;/div&gt;" style="text;html=1;align=center;verticalAlign=middle;resizable=0;points=[];labelBackgroundColor=#ffffff;" parent="22" vertex="1" connectable="0">
                    <mxGeometry x="-0.1269" relative="1" as="geometry">
                        <mxPoint as="offset"/>
                    </mxGeometry>
                </mxCell>
                <mxCell id="24" value="" style="endArrow=classic;html=1;exitX=0.5;exitY=1;exitDx=0;exitDy=0;endSize=8;arcSize=0;entryX=0.5;entryY=0;entryDx=0;entryDy=0;" parent="1" source="17" target="28" edge="1">
                    <mxGeometry width="50" height="50" relative="1" as="geometry">
                        <mxPoint x="740" y="820" as="sourcePoint"/>
                        <mxPoint x="720" y="900" as="targetPoint"/>
                    </mxGeometry>
                </mxCell>
                <mxCell id="25" value="&lt;div&gt;hasSide&lt;br&gt;&lt;/div&gt;" style="text;html=1;align=center;verticalAlign=middle;resizable=0;points=[];labelBackgroundColor=#ffffff;" parent="24" vertex="1" connectable="0">
                    <mxGeometry x="-0.1269" relative="1" as="geometry">
                        <mxPoint as="offset"/>
                    </mxGeometry>
                </mxCell>
                <mxCell id="26" value="&quot;xx&quot;" style="ellipse;whiteSpace=wrap;html=1;" parent="1" vertex="1">
                    <mxGeometry x="830" y="740" width="90" height="60" as="geometry"/>
                </mxCell>
                <mxCell id="27" value="&quot;xx&quot;" style="ellipse;whiteSpace=wrap;html=1;" parent="1" vertex="1">
                    <mxGeometry x="850" y="880" width="90" height="60" as="geometry"/>
                </mxCell>
                <mxCell id="28" value="&quot;xx&quot;" style="ellipse;whiteSpace=wrap;html=1;" parent="1" vertex="1">
                    <mxGeometry x="670" y="950" width="90" height="50" as="geometry"/>
                </mxCell>
                <mxCell id="29" value="&quot;xx&quot;" style="ellipse;whiteSpace=wrap;html=1;" parent="1" vertex="1">
                    <mxGeometry x="490" y="950" width="100" height="50" as="geometry"/>
                </mxCell>
                <mxCell id="30" value="&quot;Maintenance Record&quot;" style="ellipse;whiteSpace=wrap;html=1;" parent="1" vertex="1">
                    <mxGeometry x="170" y="770" width="120" height="80" as="geometry"/>
                </mxCell>
                <mxCell id="33" value="" style="endArrow=classic;html=1;exitX=0.5;exitY=0;exitDx=0;exitDy=0;entryX=0;entryY=1;entryDx=0;entryDy=0;endSize=8;arcSize=0;" parent="1" source="30" target="2" edge="1">
                    <mxGeometry width="50" height="50" relative="1" as="geometry">
                        <mxPoint x="80" y="860" as="sourcePoint"/>
                        <mxPoint x="277" y="860" as="targetPoint"/>
                    </mxGeometry>
                </mxCell>
                <mxCell id="34" value="referrsToEvent" style="text;html=1;align=center;verticalAlign=middle;resizable=0;points=[];labelBackgroundColor=#ffffff;" parent="33" vertex="1" connectable="0">
                    <mxGeometry x="-0.1269" relative="1" as="geometry">
                        <mxPoint as="offset"/>
                    </mxGeometry>
                </mxCell>
                <mxCell id="35" value="uuid- each maintenance record deals&lt;br&gt;with 1 system equipment" style="text;html=1;align=center;verticalAlign=middle;resizable=0;points=[];autosize=1;strokeColor=none;fillColor=none;" parent="1" vertex="1">
                    <mxGeometry x="145" y="100" width="210" height="30" as="geometry"/>
                </mxCell>
                <mxCell id="67" value="rdf:type" style="edgeStyle=none;html=1;exitX=1;exitY=0.5;exitDx=0;exitDy=0;entryX=0;entryY=0.5;entryDx=0;entryDy=0;" edge="1" parent="1" source="40" target="48">
                    <mxGeometry relative="1" as="geometry"/>
                </mxCell>
                <mxCell id="40" value="AN/SLQ-32" style="ellipse;whiteSpace=wrap;html=1;" parent="1" vertex="1">
                    <mxGeometry x="390" y="80" width="120" height="80" as="geometry"/>
                </mxCell>
                <mxCell id="42" value="" style="endArrow=classic;html=1;exitX=0.822;exitY=0.117;exitDx=0;exitDy=0;endSize=8;arcSize=0;exitPerimeter=0;" parent="1" source="2" target="5" edge="1">
                    <mxGeometry width="50" height="50" relative="1" as="geometry">
                        <mxPoint x="460" y="460" as="sourcePoint"/>
                        <mxPoint x="360" y="550" as="targetPoint"/>
                    </mxGeometry>
                </mxCell>
                <mxCell id="43" value="hasConstituent" style="text;html=1;align=center;verticalAlign=middle;resizable=0;points=[];labelBackgroundColor=#ffffff;" parent="42" vertex="1" connectable="0">
                    <mxGeometry x="-0.1269" relative="1" as="geometry">
                        <mxPoint as="offset"/>
                    </mxGeometry>
                </mxCell>
                <mxCell id="44" value="geosparql:spatialObject" style="ellipse;whiteSpace=wrap;html=1;" parent="1" vertex="1">
                    <mxGeometry x="780" y="580" width="150" height="80" as="geometry"/>
                </mxCell>
                <mxCell id="45" value="" style="endArrow=block;html=1;fontColor=#000099;exitX=1;exitY=0.5;exitDx=0;exitDy=0;endFill=0;entryX=0;entryY=0.5;entryDx=0;entryDy=0;endSize=8;arcSize=0;" parent="1" source="3" target="44" edge="1">
                    <mxGeometry width="50" height="50" relative="1" as="geometry">
                        <mxPoint x="710" y="660" as="sourcePoint"/>
                        <mxPoint x="838.4799999999893" y="520" as="targetPoint"/>
                    </mxGeometry>
                </mxCell>
                <mxCell id="46" value="causallyFollows?" style="text;html=1;align=center;verticalAlign=middle;resizable=0;points=[];autosize=1;strokeColor=none;fillColor=none;" parent="1" vertex="1">
                    <mxGeometry x="410" y="720" width="110" height="20" as="geometry"/>
                </mxCell>
                <mxCell id="48" value="Engineered System" style="ellipse;whiteSpace=wrap;html=1;" vertex="1" parent="1">
                    <mxGeometry x="590" y="70" width="120" height="80" as="geometry"/>
                </mxCell>
                <mxCell id="49" value="System" style="ellipse;whiteSpace=wrap;html=1;" vertex="1" parent="1">
                    <mxGeometry x="840" y="50" width="120" height="80" as="geometry"/>
                </mxCell>
                <mxCell id="50" value="" style="endArrow=block;html=1;fontColor=#000099;exitX=0.983;exitY=0.317;exitDx=0;exitDy=0;endFill=0;endSize=8;arcSize=0;exitPerimeter=0;" edge="1" parent="1" source="48" target="49">
                    <mxGeometry width="50" height="50" relative="1" as="geometry">
                        <mxPoint x="710" y="140" as="sourcePoint"/>
                        <mxPoint x="695" y="20" as="targetPoint"/>
                    </mxGeometry>
                </mxCell>
                <mxCell id="52" value="" style="endArrow=classic;html=1;" edge="1" parent="1" source="48" target="5">
                    <mxGeometry width="50" height="50" relative="1" as="geometry">
                        <mxPoint x="630" y="200" as="sourcePoint"/>
                        <mxPoint x="680" y="150" as="targetPoint"/>
                    </mxGeometry>
                </mxCell>
                <mxCell id="53" value="sdo:hasPart" style="edgeLabel;html=1;align=center;verticalAlign=middle;resizable=0;points=[];" vertex="1" connectable="0" parent="52">
                    <mxGeometry x="-0.0294" relative="1" as="geometry">
                        <mxPoint as="offset"/>
                    </mxGeometry>
                </mxCell>
                <mxCell id="58" value="Equipment" style="ellipse;whiteSpace=wrap;html=1;" vertex="1" parent="1">
                    <mxGeometry x="730" y="200" width="120" height="80" as="geometry"/>
                </mxCell>
                <mxCell id="59" value="" style="endArrow=block;html=1;fontColor=#000099;exitX=0.956;exitY=0.258;exitDx=0;exitDy=0;endFill=0;endSize=8;arcSize=0;exitPerimeter=0;" edge="1" parent="1" source="5" target="58">
                    <mxGeometry width="50" height="50" relative="1" as="geometry">
                        <mxPoint x="627.9100000000001" y="303.69000000000005" as="sourcePoint"/>
                        <mxPoint x="760.0020156144592" y="299.99522178848724" as="targetPoint"/>
                    </mxGeometry>
                </mxCell>
                <mxCell id="60" value="prov:Collection" style="ellipse;whiteSpace=wrap;html=1;" vertex="1" parent="1">
                    <mxGeometry x="200" y="170" width="130" height="80" as="geometry"/>
                </mxCell>
                <mxCell id="61" value="" style="endArrow=block;html=1;fontColor=#000099;exitX=0.983;exitY=0.317;exitDx=0;exitDy=0;endFill=0;endSize=8;arcSize=0;exitPerimeter=0;entryX=0.544;entryY=1.025;entryDx=0;entryDy=0;entryPerimeter=0;" edge="1" parent="1" target="60">
                    <mxGeometry width="50" height="50" relative="1" as="geometry">
                        <mxPoint x="327.91" y="330" as="sourcePoint"/>
                        <mxPoint x="460.00201561445914" y="326.3052217884872" as="targetPoint"/>
                    </mxGeometry>
                </mxCell>
                <mxCell id="62" value="moo2kili:EquipmentNomencatureRecord&lt;br&gt;" style="ellipse;whiteSpace=wrap;html=1;" vertex="1" parent="1">
                    <mxGeometry x="800" y="330" width="240" height="170" as="geometry"/>
                </mxCell>
                <mxCell id="64" value="" style="endArrow=classic;html=1;exitX=0.008;exitY=0.408;exitDx=0;exitDy=0;exitPerimeter=0;" edge="1" parent="1" source="62" target="5">
                    <mxGeometry width="50" height="50" relative="1" as="geometry">
                        <mxPoint x="694.0126363377756" y="390.00464820622784" as="sourcePoint"/>
                        <mxPoint x="649.9958274691194" y="521.9025175926415" as="targetPoint"/>
                    </mxGeometry>
                </mxCell>
                <mxCell id="65" value="referrsTo" style="edgeLabel;html=1;align=center;verticalAlign=middle;resizable=0;points=[];" vertex="1" connectable="0" parent="64">
                    <mxGeometry x="-0.0294" relative="1" as="geometry">
                        <mxPoint as="offset"/>
                    </mxGeometry>
                </mxCell>
                <mxCell id="70" value="" style="curved=1;endArrow=classic;html=1;entryX=0.822;entryY=0.092;entryDx=0;entryDy=0;entryPerimeter=0;exitX=0.322;exitY=0.033;exitDx=0;exitDy=0;exitPerimeter=0;" edge="1" parent="1" source="48" target="48">
                    <mxGeometry width="50" height="50" relative="1" as="geometry">
                        <mxPoint x="630" y="40" as="sourcePoint"/>
                        <mxPoint x="680" y="20" as="targetPoint"/>
                        <Array as="points">
                            <mxPoint x="629" y="50"/>
                            <mxPoint x="680" y="70"/>
                            <mxPoint x="629" y="40"/>
                            <mxPoint x="680" y="10"/>
                        </Array>
                    </mxGeometry>
                </mxCell>
                <mxCell id="71" value="hasSystem" style="edgeLabel;html=1;align=center;verticalAlign=middle;resizable=0;points=[];" vertex="1" connectable="0" parent="70">
                    <mxGeometry x="0.3613" y="-7" relative="1" as="geometry">
                        <mxPoint as="offset"/>
                    </mxGeometry>
                </mxCell>
                <mxCell id="74" value="System Equipment Stub" style="text;html=1;align=center;verticalAlign=middle;resizable=0;points=[];autosize=1;strokeColor=none;fillColor=none;" vertex="1" parent="1">
                    <mxGeometry x="160" y="40" width="140" height="20" as="geometry"/>
                </mxCell>
                <mxCell id="78" value="" style="endArrow=classic;html=1;endSize=8;arcSize=0;" edge="1" parent="1" source="48" target="7">
                    <mxGeometry width="50" height="50" relative="1" as="geometry">
                        <mxPoint x="520" y="180" as="sourcePoint"/>
                        <mxPoint x="400" y="230" as="targetPoint"/>
                    </mxGeometry>
                </mxCell>
                <mxCell id="79" value="hasAPL" style="text;html=1;align=center;verticalAlign=middle;resizable=0;points=[];labelBackgroundColor=#ffffff;" vertex="1" connectable="0" parent="78">
                    <mxGeometry x="-0.1269" relative="1" as="geometry">
                        <mxPoint as="offset"/>
                    </mxGeometry>
                </mxCell>
                <mxCell id="80" value="hasAllowancePart" style="endArrow=classic;html=1;" edge="1" parent="1" source="7" target="5">
                    <mxGeometry width="50" height="50" relative="1" as="geometry">
                        <mxPoint x="550" y="290" as="sourcePoint"/>
                        <mxPoint x="600" y="240" as="targetPoint"/>
                    </mxGeometry>
                </mxCell>
            </root>
        </mxGraphModel>
    </diagram>
</mxfile>